<svg xmlns="http://www.w3.org/2000/svg" width="600" height="700" viewBox="0 0 600 700">
<defs>
<radialGradient id="bg" cx="50%" cy="42%" r="75%"><stop offset="0" stop-color="#ffffff"/><stop offset="1" stop-color="#e9e4db"/></radialGradient>
<linearGradient id="sh" x1="0" x2="1" y1="0" y2="0"><stop offset="0" stop-color="#fff" stop-opacity=".12"/><stop offset=".55" stop-color="#000" stop-opacity="0"/><stop offset="1" stop-color="#000" stop-opacity=".18"/></linearGradient>
</defs>
<rect width="600" height="700" fill="url(#bg)"/>
<text x="36" y="56" font-family="Arial, sans-serif" font-size="15" letter-spacing="3" fill="#8a8378">PANTS</text>
<g transform="translate(0 -2)">
<ellipse cx="300" cy="571" rx="150" ry="14" fill="#000" opacity=".10"/>
<path d="M205 120 L395 120 L405 200 L388 545 L318 545 L300 270 L282 545 L212 545 L195 200 Z" fill="#b5483a"/><path d="M205 120 L395 120 L405 200 L388 545 L318 545 L300 270 L282 545 L212 545 L195 200 Z" fill="url(#sh)"/><path d="M205 120 L395 120 L398 152 L202 152 Z" fill="#922517"/><path d="M300 152 L300 270" stroke="#922517" stroke-width="3"/><circle cx="300" cy="136" r="6" fill="#fff" opacity=".85"/>
</g>
<text x="300" y="640" text-anchor="middle" font-family="Arial, sans-serif" font-size="26" font-weight="600" fill="#3a3a3a">Cargo Pants</text>
</svg>